<svg width="96" height="22" viewBox="0 0 96 22" fill="none" xmlns="http://www.w3.org/2000/svg">
<path d="M9.83961 2.90874H9.2854C4.2506 2.90874 0 7.00455 0 12.1539C0.00511314 17.7309 4.86232 22.169 10.4776 21.2813C12.7938 20.9178 14.7806 19.6772 16.187 17.9288C17.5203 16.2871 18.3305 14.1912 18.4194 11.9507H12.663C12.5376 13.4585 11.607 14.8114 10.1954 15.3088C7.84759 16.1375 5.65685 14.3087 5.75638 11.9989C5.83473 10.1755 7.39802 8.79059 9.17578 8.79059H9.83961C10.3363 8.79059 10.8227 8.74793 11.2985 8.66225C11.4971 8.63016 11.6905 8.58733 11.8841 8.5393C12.0409 8.50197 12.1925 8.45914 12.3441 8.41093C12.4696 8.37346 12.5898 8.33081 12.7153 8.2826C12.8147 8.2505 12.9139 8.21318 13.0082 8.17038C13.1179 8.12755 13.2276 8.07934 13.3323 8.03127C13.4839 7.96189 13.6302 7.89234 13.7715 7.81204C13.7924 7.80129 13.8134 7.79073 13.8342 7.77461C13.9806 7.7052 14.1219 7.6197 14.2577 7.53403C14.399 7.45373 14.5296 7.363 14.6603 7.27196C14.6864 7.25598 14.7125 7.23449 14.7336 7.21856C14.8642 7.12765 14.9897 7.03156 15.1151 6.92977C16.1034 6.14373 16.5426 5.06372 16.5426 3.98893C16.5426 1.98378 15.0158 0 12.6788 0C12.6788 1.60398 11.4081 2.90874 9.83961 2.90874L9.83961 2.90874Z" fill="black"/>
<path d="M2.26367 15.8926C2.26367 16.9941 2.50952 18.042 2.94862 18.9725C4.87785 20.7798 7.57584 21.7424 10.4775 21.2824C11.9624 21.0472 13.3113 20.4589 14.4615 19.5981L14.4615 19.5928C14.885 19.2827 15.2877 18.9245 15.6536 18.5393C15.8367 18.3416 16.0144 18.1383 16.1869 17.9298C17.5202 16.2882 18.3305 14.1922 18.4194 11.9517H12.663C12.5375 13.4596 11.607 14.8124 10.1953 15.3098C7.84754 16.1385 5.6568 14.3098 5.75633 11.9999C5.82956 10.3103 7.17849 9.00013 8.78874 8.81836C5.14972 9.03774 2.26367 12.1175 2.26367 15.8926L2.26367 15.8926Z" fill="black"/>
<path d="M14.8226 3.98356C14.8226 6.22941 13.3274 8.1168 11.2988 8.66225C11.4974 8.63016 11.6908 8.58732 11.8844 8.53929C12.0411 8.50197 12.1928 8.45914 12.3444 8.41093C12.4698 8.3735 12.5901 8.3308 12.7156 8.28259C12.8149 8.2505 12.9142 8.21322 13.0084 8.17038C13.1182 8.12754 13.2279 8.07934 13.3326 8.03127C13.4842 7.96189 13.6305 7.89234 13.7718 7.81207C13.7926 7.80133 13.8137 7.79073 13.8345 7.77461C13.9809 7.7052 14.1221 7.6197 14.258 7.53403C14.3992 7.45373 14.5298 7.363 14.6606 7.27196C14.6867 7.25602 14.7128 7.23453 14.7338 7.21856C14.8644 7.12765 14.99 7.03156 15.1154 6.92977C16.1036 6.14373 16.5428 5.06372 16.5428 3.98893C16.5428 1.98378 15.016 0 12.6791 0C13.9129 0.871526 14.8226 2.33138 14.8226 3.98356V3.98356Z" fill="black"/>
<path d="M12.6633 11.9512C12.6633 11.9512 17.6616 13.3895 14.4618 19.5922C14.8853 19.2821 15.2881 18.924 15.6539 18.5387C15.837 18.341 16.0148 18.1378 16.1872 17.9293C17.5205 16.2877 18.3308 14.1917 18.4197 11.9512H12.6633H12.6633Z" fill="black"/>
<path d="M23.3093 11.0612C23.3093 13.069 24.6669 14.265 26.3585 14.265C30.3681 14.265 30.3681 7.87872 26.3585 7.87872C24.6669 7.87872 23.3093 9.05365 23.3093 11.0612ZM29.4911 5.80734H31.9346V16.337H29.5327L29.4075 14.799C28.8228 16.0379 27.2149 16.6359 26.066 16.6574C23.017 16.6789 20.7617 14.7566 20.7617 11.0612C20.7617 7.43026 23.1215 5.52947 26.1286 5.55096C27.5073 5.55096 28.8228 6.21282 29.4075 7.25984L29.4911 5.80734L29.4911 5.80734Z" fill="black"/>
<path d="M34.0869 1.40625H36.6139V16.3357H34.0869V1.40625Z" fill="black"/>
<path d="M38.8489 1.40625H41.3755V16.3357H38.8489V1.40625Z" fill="black"/>
<path d="M52.2363 11.0805C52.2363 9.43611 51.1504 8.09059 49.3127 8.09059C47.4745 8.09059 46.3887 9.43611 46.3887 11.0805C46.3887 12.7254 47.5791 14.0709 49.3127 14.0709C51.0458 14.0709 52.2363 12.7254 52.2363 11.0805ZM43.6113 20.7346V5.8052H45.9918L46.159 7.25771C46.9528 6.08278 48.331 5.57031 49.5005 5.57031C52.6748 5.57031 54.7843 7.9836 54.7843 11.0805C54.7843 14.1565 52.884 16.5912 49.5841 16.5912C48.4983 16.5912 46.8899 16.2493 46.159 15.0959V20.7346H43.6113V20.7346Z" fill="black"/>
<path d="M56.6653 1.40625H59.1919V16.3357H56.6653V1.40625Z" fill="black"/>
<path d="M63.4115 11.0612C63.4115 13.069 64.7692 14.265 66.4607 14.265C70.4705 14.265 70.4705 7.87872 66.4607 7.87872C64.7692 7.87872 63.4115 9.05365 63.4115 11.0612ZM69.5934 5.80734H72.0369V16.337H69.6349L69.5097 14.799C68.925 16.0379 67.3167 16.6359 66.1683 16.6574C63.1192 16.6789 60.8635 14.7566 60.8635 11.0612C60.8635 7.43026 63.2232 5.52947 66.2309 5.55096C67.6091 5.55096 68.925 6.21282 69.5097 7.25984L69.5934 5.80734L69.5934 5.80734Z" fill="black"/>
<path d="M81.7696 16.3373V10.827C81.7696 9.22497 80.9136 8.00764 79.2845 8.00764C77.7182 8.00764 76.6529 9.35302 76.6529 10.9549V16.3373H74.126V5.78611H76.4027L76.5693 7.21713C77.6135 6.17071 78.6578 5.63672 79.9528 5.63672C82.3753 5.63672 84.3175 7.49456 84.3175 10.8055V16.3373H81.7696V16.3373Z" fill="black"/>
<path d="M93.236 8.60282C92.5051 7.8978 91.6701 7.66292 90.6885 7.66292C89.4771 7.66292 88.8087 8.04734 88.8087 8.70937C88.8087 9.39286 89.4144 9.77728 90.7299 9.86281C92.6723 9.99128 95.1368 10.4397 95.1368 13.2376C95.1368 15.0956 93.6539 16.6975 90.7089 16.6975C89.08 16.6975 87.4511 16.4199 85.9478 14.818L87.2008 12.9596C87.9315 13.7926 89.6021 14.4121 90.751 14.4336C91.7117 14.4551 92.6097 13.9426 92.6097 13.1736C92.6097 12.4471 92.025 12.1482 90.5629 12.0627C88.6209 11.9132 86.3026 11.1873 86.3026 8.79486C86.3026 6.35994 88.7671 5.50586 90.6465 5.50586C92.2548 5.50586 93.4658 5.82599 94.6561 6.8939L93.236 8.60282H93.236Z" fill="black"/>
</svg>
