<svg width="24" height="25" viewBox="0 0 24 25" fill="none" xmlns="http://www.w3.org/2000/svg">
<g id="Frame">
<path id="Vector" d="M6.5 18H3.5V21" stroke="black" stroke-width="2" stroke-linecap="round" stroke-linejoin="round"/>
<path id="Vector_2" d="M20.5 21H17.5V18" stroke="black" stroke-width="2" stroke-linecap="round" stroke-linejoin="round"/>
<path id="Vector_3" d="M17.5 7H20.5V4" stroke="black" stroke-width="2" stroke-linecap="round" stroke-linejoin="round"/>
<path id="Vector_4" d="M3.5 4H6.5V7" stroke="black" stroke-width="2" stroke-linecap="round" stroke-linejoin="round"/>
<path id="Vector_5" d="M6.5 4.14648C3.78889 5.93521 2 9.00841 2 12.4995C2 13.0093 2.03815 13.5102 2.11175 13.9995" stroke="black" stroke-width="2" stroke-linecap="round" stroke-linejoin="round"/>
<path id="Vector_6" d="M13.4999 22.3883C13.0106 22.4619 12.5097 22.5 11.9999 22.5C8.5089 22.5 5.4357 20.7111 3.64697 18" stroke="black" stroke-width="2" stroke-linecap="round" stroke-linejoin="round"/>
<path id="Vector_7" d="M21.8883 11C21.9619 11.4893 22 11.9902 22 12.5C22 15.9911 20.2111 19.0643 17.5 20.853" stroke="black" stroke-width="2" stroke-linecap="round" stroke-linejoin="round"/>
<path id="Vector_8" d="M10.5 2.61175C10.9893 2.53815 11.4902 2.5 12 2.5C15.4911 2.5 18.5643 4.28889 20.353 7" stroke="black" stroke-width="2" stroke-linecap="round" stroke-linejoin="round"/>
</g>
</svg>
