<svg width="33" height="32" viewBox="0 0 33 32" fill="none" xmlns="http://www.w3.org/2000/svg">
<g id="Frame" clip-path="url(#clip0_2892_1437)">
<path id="Vector" d="M7.5 28.0013C10.6296 28.0013 13.1667 25.4642 13.1667 22.3346C13.1667 19.205 10.6296 16.668 7.5 16.668C4.37038 16.668 1.83333 19.205 1.83333 22.3346C1.83333 25.4642 4.37038 28.0013 7.5 28.0013Z" stroke="black" stroke-width="2.66667" stroke-linecap="round" stroke-linejoin="round"/>
<path id="Vector_2" d="M25.1667 28C28.4804 28 31.1667 25.3137 31.1667 22C31.1667 18.6863 28.4804 16 25.1667 16C21.8529 16 19.1667 18.6863 19.1667 22C19.1667 25.3137 21.8529 28 25.1667 28Z" stroke="black" stroke-width="2.66667" stroke-linecap="round" stroke-linejoin="round"/>
<path id="Vector_3" d="M13.1644 4H19.1647L25.1666 22" stroke="black" stroke-width="2.66667" stroke-linecap="round" stroke-linejoin="round"/>
<path id="Vector_4" d="M7.8716 22.0003L21.6213 11.1758" stroke="black" stroke-width="2.66667" stroke-linecap="round" stroke-linejoin="round"/>
<path id="Vector_5" d="M21.6213 10.0013H27.2693L28.5001 6.66797" stroke="black" stroke-width="2.66667" stroke-linecap="round" stroke-linejoin="round"/>
<path id="Vector_6" d="M5.83333 10.6484H10.5" stroke="black" stroke-width="2.66667" stroke-linecap="round" stroke-linejoin="round"/>
<path id="Vector_7" d="M10.5 10.668L12.6818 17.6154" stroke="black" stroke-width="2.66667" stroke-linecap="round" stroke-linejoin="round"/>
</g>
<defs>
<clipPath id="clip0_2892_1437">
<rect width="32" height="32" fill="white" transform="translate(0.5)"/>
</clipPath>
</defs>
</svg>
