<svg width="33" height="32" viewBox="0 0 33 32" fill="none" xmlns="http://www.w3.org/2000/svg">
<g id="Frame">
<path id="Vector" d="M6.5 15.332H26.5V22.6654C26.5 23.4018 25.9031 23.9987 25.1667 23.9987H7.83333C7.09695 23.9987 6.5 23.4018 6.5 22.6654V15.332Z" stroke="black" stroke-width="2.66667" stroke-linejoin="round"/>
<path id="Vector_2" d="M6.5 5.33333C6.5 4.59695 7.09695 4 7.83333 4H25.1667C25.9031 4 26.5 4.59695 26.5 5.33333V15.3333H6.5V5.33333Z" stroke="black" stroke-width="2.66667" stroke-linejoin="round"/>
<path id="Vector_3" d="M10.5 28C9.3954 28 8.5 27.1046 8.5 26V24H12.5V26C12.5 27.1046 11.6046 28 10.5 28Z" stroke="black" stroke-width="2.66667" stroke-linecap="round" stroke-linejoin="round"/>
<path id="Vector_4" d="M22.5 28C21.3954 28 20.5 27.1046 20.5 26V24H24.5V26C24.5 27.1046 23.6046 28 22.5 28Z" stroke="black" stroke-width="2.66667" stroke-linecap="round" stroke-linejoin="round"/>
<path id="Vector_5" d="M4.5 8V10.6667" stroke="black" stroke-width="2.66667" stroke-linecap="round"/>
<path id="Vector_6" d="M28.5 8V10.6667" stroke="black" stroke-width="2.66667" stroke-linecap="round"/>
<path id="Vector_7" d="M10.5 21.3346C11.2364 21.3346 11.8333 20.7377 11.8333 20.0013C11.8333 19.2649 11.2364 18.668 10.5 18.668C9.76363 18.668 9.16667 19.2649 9.16667 20.0013C9.16667 20.7377 9.76363 21.3346 10.5 21.3346Z" fill="black"/>
<path id="Vector_8" d="M22.5 21.3346C23.2364 21.3346 23.8333 20.7377 23.8333 20.0013C23.8333 19.2649 23.2364 18.668 22.5 18.668C21.7636 18.668 21.1667 19.2649 21.1667 20.0013C21.1667 20.7377 21.7636 21.3346 22.5 21.3346Z" fill="black"/>
<path id="Vector_9" d="M21.1667 4L15.1667 10.6667" stroke="black" stroke-width="2.66667" stroke-linecap="round"/>
<path id="Vector_10" d="M25.8333 4.66797L22.5 8.66797" stroke="black" stroke-width="2.66667" stroke-linecap="round"/>
</g>
</svg>
