<svg width="33" height="32" viewBox="0 0 33 32" fill="none" xmlns="http://www.w3.org/2000/svg">
<g id="Frame">
<path id="Vector" fill-rule="evenodd" clip-rule="evenodd" d="M9.49999 21.3333C10.4205 21.3333 11.1667 20.5871 11.1667 19.6667C11.1667 18.7462 10.4205 18 9.49999 18C8.57953 18 7.83333 18.7462 7.83333 19.6667C7.83333 20.5871 8.57953 21.3333 9.49999 21.3333Z" fill="black"/>
<path id="Vector_2" fill-rule="evenodd" clip-rule="evenodd" d="M23.5 21.3333C24.4205 21.3333 25.1667 20.5871 25.1667 19.6667C25.1667 18.7462 24.4205 18 23.5 18C22.5795 18 21.8333 18.7462 21.8333 19.6667C21.8333 20.5871 22.5795 21.3333 23.5 21.3333Z" fill="black"/>
<path id="Vector_3" d="M5.16667 24.6667C4.06211 24.6667 3.16667 23.7713 3.16667 22.6667V16.4731C3.16667 14.9575 4.02325 13.5721 5.37907 12.8948L5.83369 12.6677L7.37367 6.06129C7.65507 4.85411 8.73114 4 9.97067 4H23.0962C24.345 4 25.4266 4.86665 25.6987 6.08544L27.1687 12.6677L27.6223 12.8944C28.9773 13.572 29.8333 14.957 29.8333 16.4721V22.6667C29.8333 23.7713 28.9379 24.6667 27.8333 24.6667H26.5021V25.3333C26.5021 26.8061 25.3071 28 23.8344 28C22.3616 28 21.1667 26.8061 21.1667 25.3333V24.6667H11.8333V25.3335C11.8333 26.8062 10.6395 28 9.16687 28C7.69421 28 6.50036 26.8062 6.50036 25.3335V24.6667H5.16667Z" stroke="black" stroke-width="2.66667" stroke-linejoin="round"/>
<path id="Vector_4" d="M9.83333 14.668H23.1667L22.0653 9.71204C21.9298 9.10204 21.3887 8.66797 20.7638 8.66797H12.2362C11.6113 8.66797 11.0702 9.10204 10.9347 9.71204L9.83333 14.668Z" stroke="black" stroke-width="2.66667" stroke-linejoin="round"/>
</g>
</svg>
