<svg width="33" height="32" viewBox="0 0 33 32" fill="none" xmlns="http://www.w3.org/2000/svg">
<g id="Frame">
<path id="Vector" d="M3.83334 6.66536V25.332C3.83334 26.0684 4.4303 26.6654 5.16668 26.6654H9.83334H12.5L10.5 19.332L15.1667 17.9987L14.5 13.332L19.8333 10.6654L18.5 8.66536L20.5 5.33203H5.16668C4.4303 5.33203 3.83334 5.92898 3.83334 6.66536Z" stroke="black" stroke-width="2.66667" stroke-linecap="round" stroke-linejoin="round"/>
<path id="Vector_2" d="M29.1667 25.332V6.66536C29.1667 5.92898 28.5697 5.33203 27.8333 5.33203H25.8333L23.1667 9.33203L25.1667 12.6654L19.1667 15.332L19.8333 20.6654L15.1667 21.9987L16.5 26.6654H27.8333C28.5697 26.6654 29.1667 26.0684 29.1667 25.332Z" stroke="black" stroke-width="2.66667" stroke-linecap="round" stroke-linejoin="round"/>
<path id="Vector_3" fill-rule="evenodd" clip-rule="evenodd" d="M10.1667 12C10.7189 12 11.1667 11.5523 11.1667 11C11.1667 10.4477 10.7189 10 10.1667 10C9.61439 10 9.16666 10.4477 9.16666 11C9.16666 11.5523 9.61439 12 10.1667 12Z" stroke="black" stroke-width="2.66667" stroke-linecap="round" stroke-linejoin="round"/>
</g>
</svg>
