<svg width="25" height="24" viewBox="0 0 25 24" fill="none" xmlns="http://www.w3.org/2000/svg">
<path d="M12.5 22C15.2614 22 17.7614 20.8807 19.5711 19.0711C21.3807 17.2614 22.5 14.7614 22.5 12C22.5 9.2386 21.3807 6.7386 19.5711 4.92893C17.7614 3.11929 15.2614 2 12.5 2C9.7386 2 7.2386 3.11929 5.42893 4.92893C3.61929 6.7386 2.5 9.2386 2.5 12C2.5 14.7614 3.61929 17.2614 5.42893 19.0711C7.2386 20.8807 9.7386 22 12.5 22Z" stroke="black" stroke-width="1.5"/>
<path d="M12.5 14.3125V12.3125C14.1568 12.3125 15.5 10.9693 15.5 9.3125C15.5 7.65565 14.1568 6.3125 12.5 6.3125C10.8432 6.3125 9.5 7.65565 9.5 9.3125" stroke="black" stroke-width="1.5"/>
<path fill-rule="evenodd" clip-rule="evenodd" d="M12.5 18.8125C13.1904 18.8125 13.75 18.2529 13.75 17.5625C13.75 16.8722 13.1904 16.3125 12.5 16.3125C11.8097 16.3125 11.25 16.8722 11.25 17.5625C11.25 18.2529 11.8097 18.8125 12.5 18.8125Z" fill="black"/>
</svg>
