<svg width="96" height="26" viewBox="0 0 96 26" fill="none" xmlns="http://www.w3.org/2000/svg">
<g id="Logo">
<path id="Vector 2" d="M67.543 21.0898C75.7948 26.2856 83.7411 25.6744 90.7705 21.0898" stroke="#5253F1" stroke-width="1.82648" stroke-linecap="round"/>
<g id="Allplans-logo">
<path id="Vector" d="M9.83961 2.90874H9.2854C4.2506 2.90874 0 7.00455 0 12.1539C0.00511314 17.7309 4.86232 22.169 10.4776 21.2813C12.7938 20.9178 14.7806 19.6772 16.187 17.9288C17.5203 16.2871 18.3305 14.1912 18.4194 11.9507H12.663C12.5376 13.4585 11.607 14.8114 10.1954 15.3088C7.84759 16.1375 5.65685 14.3087 5.75638 11.9989C5.83473 10.1755 7.39802 8.79059 9.17578 8.79059H9.83961C10.3363 8.79059 10.8227 8.74793 11.2985 8.66225C11.4971 8.63016 11.6905 8.58733 11.8841 8.5393C12.0409 8.50197 12.1925 8.45914 12.3441 8.41093C12.4696 8.37346 12.5898 8.33081 12.7153 8.2826C12.8147 8.2505 12.9139 8.21318 13.0082 8.17038C13.1179 8.12755 13.2276 8.07934 13.3323 8.03127C13.4839 7.96189 13.6302 7.89234 13.7715 7.81204C13.7924 7.80129 13.8134 7.79073 13.8342 7.77461C13.9806 7.7052 14.1219 7.6197 14.2577 7.53403C14.399 7.45373 14.5296 7.363 14.6603 7.27196C14.6864 7.25598 14.7125 7.23449 14.7336 7.21856C14.8642 7.12765 14.9897 7.03156 15.1151 6.92977C16.1034 6.14373 16.5426 5.06372 16.5426 3.98893C16.5426 1.98378 15.0158 0 12.6788 0C12.6788 1.60398 11.4081 2.90874 9.83961 2.90874L9.83961 2.90874Z" fill="black"/>
<path id="Vector_2" d="M2.26367 15.8946C2.26367 16.9961 2.50952 18.044 2.94862 18.9745C4.87785 20.7817 7.57584 21.7443 10.4775 21.2844C11.9624 21.0492 13.3113 20.4609 14.4615 19.6001L14.4615 19.5947C14.885 19.2846 15.2877 18.9264 15.6536 18.5412C15.8367 18.3435 16.0144 18.1403 16.1869 17.9318C17.5202 16.2902 18.3305 14.1942 18.4194 11.9537H12.663C12.5375 13.4615 11.607 14.8144 10.1953 15.3118C7.84754 16.1405 5.6568 14.3118 5.75633 12.0019C5.82956 10.3122 7.17849 9.00208 8.78874 8.82031C5.14972 9.03969 2.26367 12.1195 2.26367 15.8946L2.26367 15.8946Z" fill="black"/>
<path id="Vector_3" d="M14.8225 3.98356C14.8225 6.22941 13.3274 8.1168 11.2988 8.66225C11.4974 8.63016 11.6907 8.58732 11.8844 8.53929C12.0411 8.50197 12.1927 8.45914 12.3443 8.41093C12.4698 8.3735 12.59 8.3308 12.7155 8.28259C12.8149 8.2505 12.9141 8.21322 13.0084 8.17038C13.1181 8.12754 13.2279 8.07934 13.3325 8.03127C13.4841 7.96189 13.6305 7.89234 13.7717 7.81207C13.7926 7.80133 13.8136 7.79073 13.8345 7.77461C13.9808 7.7052 14.1221 7.6197 14.2579 7.53403C14.3992 7.45373 14.5298 7.363 14.6605 7.27196C14.6866 7.25602 14.7128 7.23453 14.7338 7.21856C14.8644 7.12765 14.9899 7.03156 15.1154 6.92977C16.1036 6.14373 16.5428 5.06372 16.5428 3.98893C16.5428 1.98378 15.016 0 12.679 0C13.9128 0.871526 14.8225 2.33138 14.8225 3.98356V3.98356Z" fill="black"/>
<path id="Vector_4" d="M12.6633 11.9531C12.6633 11.9531 17.6616 13.3915 14.4618 19.5942C14.8853 19.2841 15.2881 18.9259 15.6539 18.5407C15.837 18.343 16.0148 18.1397 16.1872 17.9312C17.5205 16.2896 18.3308 14.1936 18.4197 11.9531H12.6633H12.6633Z" fill="black"/>
<path id="Vector_5" d="M23.3092 11.0612C23.3092 13.069 24.6669 14.265 26.3584 14.265C30.3681 14.265 30.3681 7.87872 26.3584 7.87872C24.6669 7.87872 23.3092 9.05365 23.3092 11.0612ZM29.4911 5.80734H31.9346V16.337H29.5327L29.4075 14.799C28.8227 16.0379 27.2148 16.6359 26.066 16.6574C23.0169 16.6789 20.7617 14.7566 20.7617 11.0612C20.7617 7.43026 23.1214 5.52947 26.1286 5.55096C27.5073 5.55096 28.8227 6.21282 29.4075 7.25984L29.4911 5.80734L29.4911 5.80734Z" fill="black"/>
<path id="Vector_6" d="M34.0869 1.40625H36.6139V16.3357H34.0869V1.40625Z" fill="black"/>
<path id="Vector_7" d="M38.8489 1.40625H41.3756V16.3357H38.8489V1.40625Z" fill="black"/>
<path id="Vector_8" d="M52.2362 11.0805C52.2362 9.43611 51.1504 8.09059 49.3126 8.09059C47.4744 8.09059 46.3886 9.43611 46.3886 11.0805C46.3886 12.7254 47.5791 14.0709 49.3126 14.0709C51.0457 14.0709 52.2362 12.7254 52.2362 11.0805ZM43.6113 20.7346V5.8052H45.9917L46.1589 7.25771C46.9527 6.08278 48.331 5.57031 49.5004 5.57031C52.6747 5.57031 54.7843 7.9836 54.7843 11.0805C54.7843 14.1565 52.8839 16.5912 49.584 16.5912C48.4982 16.5912 46.8898 16.2493 46.1589 15.0959V20.7346H43.6113V20.7346Z" fill="black"/>
<path id="Vector_9" d="M56.6652 1.40625H59.1918V16.3357H56.6652V1.40625Z" fill="black"/>
<path id="Vector_10" d="M63.4115 11.0612C63.4115 13.069 64.7692 14.265 66.4608 14.265C70.4706 14.265 70.4706 7.87872 66.4608 7.87872C64.7692 7.87872 63.4115 9.05365 63.4115 11.0612ZM69.5934 5.80734H72.0369V16.337H69.635L69.5098 14.799C68.9251 16.0379 67.3167 16.6359 66.1683 16.6574C63.1193 16.6789 60.8636 14.7566 60.8636 11.0612C60.8636 7.43026 63.2233 5.52947 66.2309 5.55096C67.6091 5.55096 68.9251 6.21282 69.5098 7.25984L69.5934 5.80734L69.5934 5.80734Z" fill="black"/>
<path id="Vector_11" d="M81.7694 16.3373V10.827C81.7694 9.22497 80.9135 8.00764 79.2844 8.00764C77.7181 8.00764 76.6528 9.35302 76.6528 10.9549V16.3373H74.1259V5.78611H76.4025L76.5692 7.21713C77.6134 6.17071 78.6576 5.63672 79.9527 5.63672C82.3752 5.63672 84.3174 7.49456 84.3174 10.8055V16.3373H81.7694V16.3373Z" fill="black"/>
<path id="Vector_12" d="M93.2361 8.60477C92.5052 7.89975 91.6702 7.66487 90.6886 7.66487C89.4772 7.66487 88.8088 8.04929 88.8088 8.71132C88.8088 9.39481 89.4146 9.77923 90.7301 9.86476C92.6724 9.99324 95.1369 10.4417 95.1369 13.2396C95.1369 15.0976 93.654 16.6995 90.7091 16.6995C89.0801 16.6995 87.4512 16.4219 85.9479 14.82L87.2009 12.9615C87.9317 13.7946 89.6022 14.4141 90.7511 14.4356C91.7118 14.4571 92.6098 13.9446 92.6098 13.1755C92.6098 12.4491 92.0251 12.1502 90.563 12.0647C88.621 11.9151 86.3028 11.1892 86.3028 8.79682C86.3028 6.3619 88.7673 5.50781 90.6466 5.50781C92.2549 5.50781 93.4659 5.82794 94.6563 6.89585L93.2361 8.60477H93.2361Z" fill="black"/>
</g>
</g>
</svg>
