<svg width="210" height="213" viewBox="0 0 210 213" fill="none" xmlns="http://www.w3.org/2000/svg">
<g id="Group">
<path id="Vector" d="M29.8831 0.85524C21.0858 2.96889 11.1459 10.1096 6.29027 17.8215C1.26322 25.8191 -0.907549 35.0735 0.349213 43.1282C1.72023 51.7541 6.5759 64.1504 15.8874 82.7733C25.0846 101.111 38.452 124.646 39.4231 124.361C40.5656 123.961 53.5902 101.053 61.5878 85.3439C70.4423 67.8635 75.8121 54.8389 77.8686 45.4132C79.1825 39.5293 78.7826 33.1312 76.7261 26.9616C74.4982 20.3351 72.2132 16.7933 66.7862 11.3092C58.9029 3.36877 50.3912 -0.0587692 39.0232 -0.00164795C35.8813 -0.00164795 31.7683 0.398232 29.8831 0.85524ZM46.9637 19.9923C50.9053 21.4204 55.5896 25.8191 57.589 29.9322C58.8458 32.3886 59.0172 33.5882 59.0172 38.7866C59.0172 43.985 58.8458 45.1276 57.7033 47.2983C55.6468 51.0686 51.5337 55.1245 47.9348 56.8954C45.1357 58.3236 44.0503 58.4949 39.3088 58.4949C34.5103 58.4949 33.482 58.3236 30.6258 56.8954C26.3985 54.8389 22.0569 50.0975 20.4574 45.7559C19.4292 43.071 19.2578 41.6429 19.4292 37.6441C19.7719 30.5034 22.6282 25.3621 28.3407 21.7061C33.939 18.1072 40.3942 17.5359 46.9637 19.9923Z" fill="black"/>
<path id="Vector_2" d="M123.855 74.7758C115.914 76.9466 109.745 80.7168 104.261 86.7722C100.662 90.7709 96.8915 97.9116 95.4634 103.339C94.0924 108.765 94.2066 116.306 95.749 121.904C99.8049 136.529 113.229 164.234 129.682 192.055C133.281 198.167 133.738 198.738 134.423 197.767C137.451 193.483 151.504 167.776 157.559 155.608C172.012 126.36 174.982 115.449 171.84 103.11C168.298 89.2286 157.33 78.3176 143.392 74.7187C137.851 73.2905 129.053 73.3476 123.855 74.7758ZM141.221 93.6843C145.106 95.1125 149.39 98.8828 151.389 102.596C156.931 112.879 152.76 125.732 142.249 130.645C139.45 131.958 138.25 132.187 133.566 132.187C128.71 132.187 127.796 132.016 124.997 130.587C123.284 129.673 120.999 128.131 119.913 127.16C109.802 117.563 112.201 100.654 124.597 94.3699C129.967 91.685 135.337 91.4565 141.221 93.6843Z" fill="black"/>
<path id="Vector_3" d="M97.8627 165.603C78.8398 168.859 64.5013 174.743 59.7028 181.426C57.3035 184.74 56.9608 189.024 58.7317 192.68C62.9589 201.477 80.7821 208.333 107.86 211.646C120.656 213.245 148.876 213.131 161.558 211.417C172.526 209.932 182.066 207.876 189.206 205.533C206.116 199.935 213.599 190.852 208.344 182.34C203.773 174.914 188.235 168.402 167.841 165.431L162.7 164.631L161.272 167.773C160.472 169.487 159.901 170.972 159.958 171.03C160.072 171.087 162.3 171.429 164.985 171.829C176.982 173.543 188.692 176.799 195.376 180.284C199.432 182.398 203.259 186.054 203.259 187.767C203.259 190.224 199.889 193.366 194.405 196.108C180.238 203.02 155.731 206.676 127.854 205.99C98.7767 205.305 75.0124 199.821 66.7864 191.995C63.6444 188.967 63.5873 186.968 66.6721 183.997C71.9848 178.856 89.6366 173.029 104.603 171.544C106.717 171.315 108.431 171.087 108.431 171.03C108.431 170.058 105.289 164.46 104.832 164.517C104.432 164.517 101.347 165.031 97.8627 165.603Z" fill="black"/>
</g>
</svg>
