<svg width="33" height="32" viewBox="0 0 33 32" fill="none" xmlns="http://www.w3.org/2000/svg">
<g id="Motorcycle Icon (1). 1" clip-path="url(#clip0_2893_1473)">
<path id="Vector" d="M27.3205 15.4081C26.3961 15.4081 25.5283 15.6526 24.7761 16.0786L23.4355 14.299C25.138 13.0546 26.887 12.4837 27.0379 12.436C27.226 12.3762 27.379 12.2379 27.4574 12.0577C27.5358 11.8768 27.5325 11.6707 27.4474 11.4932C25.1443 6.67012 21.5731 6.2532 21.4221 6.23786C21.1329 6.20925 20.8689 6.35887 20.7434 6.61219C20.617 6.86617 20.6615 7.17141 20.8543 7.37947C21.2779 7.83426 21.4534 8.32634 21.3903 8.88412C21.363 9.12706 21.2922 9.3745 21.1888 9.62188C17.3032 8.35116 14.8248 10.1615 13.9496 10.9859C11.7802 10.2217 9.82955 9.83563 8.11964 9.83563C5.48402 9.83563 4.37297 10.7677 4.25464 10.8742C4.06185 11.0476 3.98401 11.3163 4.05513 11.5664C4.12631 11.8164 4.33307 12.0038 4.58835 12.0504C7.0946 12.5046 8.84669 13.3606 10.0687 14.3739L8.48523 16.2367C7.67615 15.7134 6.71341 15.4081 5.68014 15.4081C2.82378 15.4081 0.5 17.7318 0.5 20.5877C0.5 23.444 2.82378 25.7678 5.6802 25.7678C8.53656 25.7678 10.8604 23.444 10.8604 20.5877C10.8604 19.2543 10.3536 18.0372 9.52281 17.1182L11.0408 15.3324C13.2475 17.9359 12.7975 21.0176 12.766 21.214C12.7327 21.4114 12.7886 21.6128 12.9183 21.7658C13.0472 21.9187 13.2374 22.0064 13.4376 22.0064H19.5266C19.7254 22.0064 19.915 21.9193 20.0439 21.7684C20.1736 21.6168 20.2301 21.4166 20.1995 21.2199C19.7796 18.5438 20.922 16.5657 22.3876 15.1709L23.689 16.8985C22.7339 17.8386 22.1403 19.1449 22.1403 20.5876C22.1403 23.444 24.4641 25.7677 27.3205 25.7677C30.1763 25.7677 32.5 23.444 32.5 20.5876C32.5 17.7318 30.1762 15.4081 27.3205 15.4081ZM20.4582 10.8218C19.7898 11.6784 18.9107 12.438 18.3172 12.8848C17.3085 12.3718 16.3351 11.9231 15.3984 11.5388C16.2883 10.8978 17.9847 10.1157 20.4582 10.8218ZM9.49864 20.5877C9.49864 22.6933 7.78593 24.4061 5.68014 24.4061C3.57448 24.4061 1.86163 22.6933 1.86163 20.5877C1.86163 18.4826 3.57448 16.7698 5.68014 16.7698C6.37715 16.7698 7.03047 16.9584 7.59354 17.2857L5.16154 20.1468L6.1988 21.0284L8.63092 18.1673C9.1729 18.8266 9.49864 19.6697 9.49864 20.5877ZM18.7666 20.6448H14.1669C14.2101 18.6442 13.6609 13.3989 7.05849 11.2625C7.36902 11.2219 7.72212 11.1973 8.11964 11.1973C9.94619 11.1973 13.1536 11.7332 18.0625 14.285C18.2833 14.4001 18.5512 14.3862 18.7586 14.2438C18.9089 14.1421 22.4401 11.7172 22.7434 9.03837C22.78 8.71851 22.7707 8.40804 22.7168 8.10946C23.6377 8.60546 24.8491 9.56827 25.8797 11.4213C23.8458 12.2685 18.4043 15.0677 18.7666 20.6448ZM27.3205 24.4061C25.2147 24.4061 23.502 22.6933 23.502 20.5877C23.502 19.5892 23.8878 18.6794 24.5176 17.9984L26.7766 20.9972L27.8644 20.1781L25.6048 17.1785C26.121 16.9177 26.7036 16.7698 27.3205 16.7698C29.4256 16.7698 31.1383 18.4826 31.1383 20.5877C31.1383 22.6933 29.4255 24.4061 27.3205 24.4061Z" fill="black" stroke="black" stroke-width="1.05"/>
</g>
<defs>
<clipPath id="clip0_2893_1473">
<rect width="32" height="32" fill="white" transform="translate(0.5)"/>
</clipPath>
</defs>
</svg>
