<svg width="33" height="32" viewBox="0 0 33 32" fill="none" xmlns="http://www.w3.org/2000/svg">
<path d="M10.5 8L12.5 4H20.5L22.5 8H10.5Z" stroke="black" stroke-width="2"/>
<path d="M27.8334 8H5.16675C4.06218 8 3.16675 8.89543 3.16675 10V26C3.16675 27.1046 4.06218 28 5.16675 28H27.8334C28.938 28 29.8334 27.1046 29.8334 26V10C29.8334 8.89543 28.938 8 27.8334 8Z" stroke="black" stroke-width="2"/>
<path d="M16.5001 23.3327C19.4456 23.3327 21.8334 20.9449 21.8334 17.9993C21.8334 15.0538 19.4456 12.666 16.5001 12.666C13.5545 12.666 11.1667 15.0538 11.1667 17.9993C11.1667 20.9449 13.5545 23.3327 16.5001 23.3327Z" stroke="black" stroke-width="2"/>
</svg>
