<svg width="33" height="32" viewBox="0 0 33 32" fill="none" xmlns="http://www.w3.org/2000/svg">
<path d="M16.5001 4V28C11.8334 28 8.36575 21.8927 8.36575 21.8927H4.50008C3.7637 21.8927 3.16675 21.2958 3.16675 20.5594V11.3405C3.16675 10.6041 3.7637 10.0072 4.50008 10.0072H8.36575C8.36575 10.0072 11.8334 4 16.5001 4Z" stroke="black" stroke-width="2.13333"/>
<path d="M21.8333 10C22.2487 10.371 22.6253 10.7865 22.956 11.2392C23.9257 12.5669 24.4999 14.2149 24.4999 16C24.4999 17.7697 23.9356 19.4045 22.9811 20.7262C22.6445 21.1923 22.2593 21.6195 21.8333 22" stroke="black" stroke-width="2.13333"/>
<path d="M23.324 27.4587C27.2224 25.1318 29.8334 20.8716 29.8334 16.0016C29.8334 11.2073 27.3029 7.00392 23.5047 4.6543" stroke="black" stroke-width="2.13333"/>
</svg>
