<svg width="33" height="32" viewBox="0 0 33 32" fill="none" xmlns="http://www.w3.org/2000/svg">
<path d="M28.353 13.7384C28.5215 12.6079 28.4662 11.4505 28.1872 10.3376C27.8186 8.86745 27.0594 7.47519 25.9097 6.32552C24.76 5.17586 23.3678 4.41671 21.8977 4.04809C20.7848 3.76903 19.6274 3.71377 18.4968 3.88229" stroke="black" stroke-width="2"/>
<path d="M23.2931 13.2023C23.4736 11.9912 23.0977 10.7132 22.1655 9.78097C21.2331 8.8487 19.9551 8.47277 18.7441 8.6533" stroke="black" stroke-width="2"/>
<path d="M10.0838 5.86523C10.5682 5.86523 11.0145 6.12791 11.2495 6.55141L12.8805 9.48928C13.0941 9.87395 13.1041 10.3392 12.9073 10.7327L11.3361 13.8751C11.3361 13.8751 11.7915 16.2161 13.6971 18.1217C15.6027 20.0273 17.9358 20.4748 17.9358 20.4748L21.0777 18.9039C21.4715 18.7069 21.9371 18.7171 22.3219 18.9311L25.2681 20.5691C25.6912 20.8043 25.9536 21.2503 25.9536 21.7344V25.1167C25.9536 26.8392 24.3537 28.0833 22.7216 27.5325C19.3697 26.4015 14.1665 24.2481 10.8687 20.9501C7.57072 17.6523 5.41725 12.4491 4.28623 9.09721C3.73555 7.46515 4.97961 5.86523 6.70204 5.86523H10.0838Z" stroke="black" stroke-width="2"/>
</svg>
