<svg width="33" height="32" viewBox="0 0 33 32" fill="none" xmlns="http://www.w3.org/2000/svg">
<g id="Frame">
<path id="Vector" d="M16.5 10C17.6046 10 18.5 9.10457 18.5 8C18.5 6.89543 17.6046 6 16.5 6C15.3954 6 14.5 6.89543 14.5 8C14.5 9.10457 15.3954 10 16.5 10Z" fill="black"/>
<path id="Vector_2" d="M16.5 18C17.6046 18 18.5 17.1046 18.5 16C18.5 14.8954 17.6046 14 16.5 14C15.3954 14 14.5 14.8954 14.5 16C14.5 17.1046 15.3954 18 16.5 18Z" fill="black"/>
<path id="Vector_3" d="M16.5 25.332C17.6046 25.332 18.5 24.4366 18.5 23.332C18.5 22.2275 17.6046 21.332 16.5 21.332C15.3954 21.332 14.5 22.2275 14.5 23.332C14.5 24.4366 15.3954 25.332 16.5 25.332Z" fill="black"/>
</g>
</svg>
