<svg width="22" height="35" viewBox="0 0 22 35" fill="none" xmlns="http://www.w3.org/2000/svg">
<path id="Vector" d="M8.36133 0.340778C5.89982 0.932178 3.11865 2.93015 1.76002 5.08796C0.353451 7.32569 -0.253933 9.91507 0.0977101 12.1688C0.481321 14.5823 1.83994 18.0508 4.4453 23.2615C7.01869 28.3923 10.7589 34.9776 11.0306 34.8977C11.3503 34.7858 14.9946 28.3763 17.2323 23.9808C19.7098 19.0898 21.2123 15.4455 21.7877 12.8081C22.1553 11.1618 22.0434 9.37162 21.468 7.64537C20.8447 5.79125 20.2053 4.80025 18.6869 3.26581C16.4811 1.04407 14.0995 0.0850372 10.9187 0.101021C10.0396 0.101021 8.88879 0.212906 8.36133 0.340778ZM13.1405 5.69535C14.2434 6.09494 15.554 7.32569 16.1135 8.47652C16.4651 9.16383 16.5131 9.49949 16.5131 10.954C16.5131 12.4085 16.4651 12.7282 16.1454 13.3356C15.57 14.3905 14.4192 15.5254 13.4122 16.0209C12.629 16.4205 12.3253 16.4684 10.9987 16.4684C9.65601 16.4684 9.36831 16.4205 8.56912 16.0209C7.38632 15.4455 6.17155 14.1188 5.724 12.904C5.43629 12.1528 5.38834 11.7532 5.43629 10.6343C5.5322 8.63636 6.33139 7.19782 7.92976 6.17486C9.49617 5.16788 11.3023 5.00804 13.1405 5.69535Z" fill="black"/>
</svg>
