<svg width="24" height="25" viewBox="0 0 24 25" fill="none" xmlns="http://www.w3.org/2000/svg">
<g id="Frame">
<path id="Vector" d="M18 6.5H5V18.5H18V6.5Z" stroke="black" stroke-width="2" stroke-linejoin="round"/>
<path id="Vector_2" d="M13.5 12.5C13.5 11.3954 12.6046 10.5 11.5 10.5C10.3954 10.5 9.5 11.3954 9.5 12.5C9.5 13.6046 10.3954 14.5 11.5 14.5C12.6046 14.5 13.5 13.6046 13.5 12.5Z" stroke="black" stroke-width="2" stroke-linejoin="round"/>
<path id="Vector_3" d="M7.5 6.49998C7.5 6.46353 7.50415 6.42713 7.5123 6.39153L8.31605 2.89154C8.3686 2.66277 8.57825 2.5 8.82045 2.5H14.1918C14.434 2.5 14.6437 2.66277 14.6962 2.89154L15.5 6.39153" stroke="black" stroke-width="2" stroke-linecap="round"/>
<path id="Vector_4" d="M7.5 18.5C7.5 18.5365 7.50415 18.5729 7.5123 18.6085L8.31605 22.1085C8.3686 22.3373 8.57825 22.5 8.82045 22.5H14.1918C14.434 22.5 14.6437 22.3373 14.6962 22.1085L15.5 18.6085" stroke="black" stroke-width="2" stroke-linecap="round"/>
<path id="Vector_5" d="M19.5 8.5V10.5" stroke="black" stroke-width="2" stroke-linecap="round"/>
</g>
</svg>
