<svg width="33" height="32" viewBox="0 0 33 32" fill="none" xmlns="http://www.w3.org/2000/svg">
<g id="Flat Tire 1">
<g id="Group">
<path id="Vector" d="M23.5126 2.25478L23.5124 2.2546L23.5212 2.24815C23.6681 2.14085 23.8606 2.11536 24.0167 2.12729C24.173 2.13923 24.3598 2.19378 24.4893 2.32322C24.5655 2.39943 24.6288 2.49186 24.6611 2.60798C24.6929 2.72252 24.6891 2.83991 24.6641 2.95791C24.6168 3.18221 24.4816 3.45721 24.2797 3.81133L24.2794 3.81173C24.0727 4.17269 23.9197 4.41826 23.7755 4.57091C23.6993 4.65155 23.6171 4.71589 23.5207 4.75785C23.4232 4.80025 23.328 4.8125 23.2375 4.8125C23.0441 4.8125 22.8644 4.71095 22.7419 4.59753C22.6212 4.48577 22.5 4.31007 22.5 4.10625C22.5 4.05808 22.5121 4.01425 22.5189 3.99124C22.5275 3.96234 22.5387 3.93159 22.5507 3.90121C22.575 3.8401 22.6083 3.76681 22.6464 3.68779C22.7231 3.529 22.8257 3.33431 22.9323 3.14261C23.0389 2.95083 23.1512 2.75882 23.2477 2.60547C23.2958 2.52904 23.3415 2.45987 23.3816 2.40428C23.4153 2.35745 23.4625 2.29481 23.5126 2.25478Z" fill="black" stroke="black" stroke-width="0.5"/>
<path id="Vector_2" d="M2.83042 13.1807L2.83037 13.1809C2.12815 15.4025 2.06575 17.993 2.6572 20.4033L2.65727 20.4036C3.12258 22.2903 4.18403 24.3761 5.42946 25.8196L5.43035 25.8206C5.55444 25.9628 5.64056 26.0755 5.69421 26.1602C5.72724 26.2124 5.74089 26.2433 5.74644 26.257C5.74553 26.2595 5.74445 26.2624 5.74316 26.2656C5.73326 26.2906 5.71575 26.3264 5.6878 26.3738C5.63196 26.4684 5.5445 26.5926 5.42353 26.7438L5.42038 26.7478L5.42042 26.7478C5.31437 26.886 5.20678 27.0353 5.11876 27.1653C5.03519 27.2887 4.95692 27.4126 4.92154 27.4922L4.9188 27.4984L4.91888 27.4984C4.79041 27.8099 4.78908 28.1861 4.86819 28.5268C4.94751 28.8685 5.11562 29.2092 5.36633 29.4447L5.36726 29.4456L5.36726 29.4456C5.46135 29.5331 5.55655 29.6133 5.67228 29.6775C5.79019 29.7429 5.918 29.7855 6.07396 29.8139C6.37155 29.8681 6.80549 29.875 7.52499 29.875C8.12697 29.875 8.47646 29.8721 8.69129 29.8547C8.79955 29.8459 8.88903 29.8324 8.96621 29.8077C9.05123 29.7805 9.11135 29.7428 9.16354 29.7006M2.83042 13.1807L7.56269 28.3751M2.83042 13.1807C4.46642 8.0181 9.1622 4.192 14.4764 3.68861C14.8172 3.65589 15.4792 3.65002 15.9442 3.66258L15.9467 3.66267C18.7153 3.76427 21.0679 4.50879 23.2283 5.9809L23.2286 5.98114C23.7093 6.30983 24.0172 6.53192 24.2037 6.70811C24.2988 6.79796 24.3748 6.8871 24.4259 6.9844C24.48 7.08731 24.5 7.18728 24.5 7.2875C24.5 7.48446 24.412 7.67054 24.3004 7.80409C24.1933 7.93222 24.0203 8.0625 23.8125 8.0625C23.7542 8.0625 23.6897 8.05845 23.6156 8.03713C23.544 8.01655 23.4757 7.9834 23.4024 7.93972C23.2622 7.85608 23.0635 7.70851 22.7373 7.46234C19.0139 4.66838 13.8727 4.40246 9.73166 6.80377C8.73993 7.37922 8.08816 7.89039 7.20802 8.77053L7.20742 8.77113C6.29735 9.67504 5.74953 10.3942 5.21197 11.3532C2.86318 15.5804 3.39493 21.0307 6.52937 24.7835L6.53036 24.7847C7.03758 25.3997 7.24234 25.769 7.24997 26.2649L7.24999 26.2649V26.2687C7.24999 26.4991 7.21471 26.7 7.11194 26.9216C7.01352 27.1338 6.85696 27.3563 6.63293 27.6372L6.63271 27.6374C6.43439 27.8853 6.3457 28.0379 6.31602 28.141C6.30288 28.1867 6.30352 28.2158 6.30761 28.2369C6.31125 28.2556 6.31992 28.2795 6.34074 28.3114M2.83042 13.1807L6.34074 28.3114M9.16354 29.7006L9.00624 29.5063L9.16318 29.7009C9.1633 29.7008 9.16342 29.7007 9.16354 29.7006ZM9.16354 29.7006C9.33276 29.5639 9.40248 29.3548 9.40467 29.167C9.40687 28.9771 9.34149 28.7692 9.18927 28.617C9.14767 28.5754 9.09284 28.5253 9.00666 28.4875C8.92805 28.453 8.83873 28.4354 8.73475 28.4235C8.52997 28.4 8.18385 28.3905 7.56269 28.3751M7.56269 28.3751C6.9514 28.3593 6.63273 28.3485 6.4555 28.3295C6.39189 28.3227 6.35781 28.3159 6.34074 28.3114M7.56269 28.3751L6.34074 28.3114M6.14999 28.475C5.96874 28.225 6.03749 27.9812 6.43749 27.4813C6.88124 26.925 6.99999 26.6688 6.99999 26.2687C6.99374 25.8625 6.83749 25.55 6.33749 24.9437L6.14999 28.475Z" fill="black" stroke="black" stroke-width="0.5"/>
<path id="Vector_3" d="M25.8324 6.95498L25.8324 6.95502L25.8289 6.95098C25.7597 6.87017 25.685 6.77267 25.6482 6.65568C25.6067 6.52352 25.621 6.39473 25.6755 6.26968C25.7253 6.15546 25.8098 6.04105 25.9136 5.92039C26.0194 5.79738 26.1595 5.65184 26.3344 5.47534C26.619 5.1846 26.7984 5.00545 26.9354 4.90297C27.0086 4.84817 27.0811 4.80614 27.1622 4.78049C27.2435 4.75476 27.3174 4.75078 27.3813 4.75078C27.486 4.75078 27.593 4.76094 27.6957 4.80724C27.8015 4.8549 27.8763 4.92875 27.939 5.00711L27.939 5.0071L27.9409 5.00952C28.0055 5.09239 28.0745 5.1918 28.1062 5.30948C28.1417 5.4411 28.1241 5.56772 28.0683 5.6907C28.0171 5.80385 27.932 5.91754 27.827 6.03835C27.7199 6.16142 27.5786 6.30701 27.4018 6.48381L27.4018 6.48381L27.4008 6.48479C27.1231 6.75939 26.9405 6.93465 26.8032 7.0394C26.7323 7.09349 26.6628 7.1373 26.5886 7.1664C26.5102 7.19717 26.4382 7.20703 26.3688 7.20703C26.2661 7.20703 26.1665 7.18877 26.0704 7.14203C25.9762 7.09623 25.8996 7.03003 25.8324 6.95498Z" fill="black" stroke="black" stroke-width="0.5"/>
<path id="Vector_4" d="M29.6998 9.93531L29.6998 9.93532L29.6974 9.9367C29.345 10.1345 29.0704 10.2683 28.8492 10.3097C28.7315 10.3318 28.6122 10.3314 28.4971 10.289C28.3824 10.2467 28.2969 10.1718 28.2306 10.0884C28.1707 10.0154 28.131 9.92202 28.1062 9.84105C28.08 9.75519 28.0625 9.65694 28.0625 9.56245C28.0625 9.4947 28.0627 9.40029 28.0958 9.30485C28.1321 9.2004 28.1975 9.11925 28.2814 9.04638C28.4309 8.91642 28.7032 8.76215 29.1588 8.507C29.3349 8.40775 29.5088 8.31751 29.6484 8.25136C29.718 8.21843 29.7817 8.19016 29.8345 8.16955C29.8606 8.15933 29.8872 8.14974 29.9123 8.14233C29.9303 8.13698 29.9721 8.12495 30.0188 8.12495C30.1341 8.12495 30.2355 8.17656 30.304 8.22112C30.379 8.26986 30.4497 8.3333 30.5102 8.40002C30.5709 8.46695 30.6273 8.54389 30.6699 8.6237C30.7101 8.69889 30.75 8.79885 30.75 8.9062C30.75 9.11511 30.6505 9.27499 30.4788 9.42547C30.3185 9.56603 30.066 9.72427 29.6998 9.93531Z" fill="black" stroke="black" stroke-width="0.5"/>
<path id="Vector_5" d="M24.9109 8.68789L24.9118 8.68639C24.9474 8.62104 24.9987 8.56235 25.0486 8.51679C25.0982 8.4715 25.1625 8.42448 25.2342 8.39444C25.3576 8.34249 25.4943 8.31622 25.6439 8.34856C25.788 8.3797 25.9164 8.45937 26.0377 8.56601C26.273 8.77291 26.548 9.143 26.926 9.70387L26.9263 9.70419C28.0347 11.3542 28.7921 13.3334 29.0724 15.2767L29.0727 15.2784C29.1409 15.7756 29.1656 16.5689 29.1539 17.3435C29.1421 18.1173 29.0936 18.8982 29.0085 19.3693L29.0084 19.3697C28.5697 21.7735 27.6206 23.8372 26.0755 25.7385C25.9482 25.8961 25.8432 26.04 25.7714 26.152C25.7381 26.2039 25.7142 26.2456 25.6988 26.2762C25.7122 26.3046 25.7326 26.3422 25.7601 26.3878C25.8214 26.4893 25.9098 26.6157 26.0126 26.742L26.0127 26.742L26.0171 26.7476C26.1231 26.8858 26.2307 27.0351 26.3187 27.1652C26.4023 27.2886 26.4806 27.4125 26.5159 27.4921L26.516 27.492L26.5186 27.4983C26.6471 27.8097 26.6484 28.1859 26.5693 28.5267C26.49 28.8684 26.3219 29.209 26.0712 29.4446L26.0712 29.4446L26.0697 29.4459C26.0567 29.4579 26.0431 29.4714 26.0285 29.486C25.9571 29.5568 25.8607 29.6524 25.6963 29.714C25.5162 29.7814 25.2514 29.8149 24.7953 29.8363C23.9573 29.8755 22.3595 29.8753 19.1681 29.8749C18.834 29.8749 18.4825 29.8748 18.1125 29.8748H10.975H10.8747L10.8022 29.8055L10.6603 29.6698C10.4279 29.4555 10.3816 29.1041 10.4915 28.8168L10.4915 28.8168L10.4922 28.815C10.4927 28.8136 10.4935 28.8114 10.4946 28.8085C10.503 28.7851 10.5279 28.7162 10.571 28.6598C10.6304 28.5819 10.7103 28.5349 10.8004 28.5042C10.9583 28.4505 11.2195 28.4247 11.6639 28.4078C12.535 28.3747 14.2458 28.3748 17.648 28.3748C17.8034 28.3748 17.9624 28.3748 18.125 28.3748C21.586 28.3748 23.3328 28.3748 24.2308 28.3593C24.6835 28.3514 24.9074 28.3397 25.0242 28.3243C25.0533 28.3204 25.0713 28.3169 25.0816 28.3145C25.115 28.2793 25.1261 28.256 25.1303 28.2421C25.1342 28.2291 25.1379 28.2062 25.1257 28.1606C25.0968 28.0528 24.9987 27.8843 24.7727 27.5987L24.7723 27.5983C24.4015 27.1275 24.1797 26.694 24.1797 26.2444C24.1797 25.7898 24.4059 25.3805 24.7821 24.9585C27.1399 22.3074 28.1591 18.4129 27.4422 14.767C27.0934 12.9987 26.3347 11.3221 25.2336 9.89675C25.0464 9.65644 24.911 9.45525 24.8509 9.26638C24.7819 9.04986 24.8155 8.86584 24.9109 8.68789Z" fill="black" stroke="black" stroke-width="0.5"/>
<path id="Vector_6" d="M14.3252 22.0416C14.3614 21.9533 14.4116 21.8631 14.4943 21.7866C14.5778 21.7094 14.6777 21.6615 14.7893 21.6305C14.997 21.5728 15.2953 21.562 15.7188 21.562C16.1396 21.562 16.4369 21.5729 16.6445 21.6293C16.7556 21.6595 16.8555 21.7061 16.9395 21.7814C17.0234 21.8567 17.0749 21.9459 17.1119 22.0342L17.1128 22.0364C17.3089 22.5178 16.9843 23.0034 16.5015 23.0571C16.5003 23.1057 16.5 23.1679 16.5 23.2495C16.5 23.3032 16.5001 23.3487 16.5005 23.3876C16.5983 23.3718 16.7144 23.3561 16.8133 23.3451C17.2467 23.2867 17.9988 23.0361 18.5748 22.7451L18.5751 22.7449C20.486 21.7835 21.7966 19.8651 21.9948 17.745C22.127 16.3086 21.7104 14.6853 20.9118 13.5022C20.0266 12.1985 18.5864 11.2773 16.9346 10.9638L16.9337 10.9637C16.6518 10.909 16.1776 10.8807 15.6906 10.8823C15.2036 10.8838 14.7341 10.9151 14.4615 10.9696L14.4612 10.9697C11.6484 11.5286 9.73243 13.6792 9.44886 16.6296L9.44882 16.63C9.16699 19.5142 11.0459 22.288 13.8859 23.1605L13.8862 23.1606C14.1685 23.2477 14.4869 23.3201 14.7415 23.3613C14.8388 23.377 14.9233 23.3876 14.9907 23.393C14.9922 23.3432 14.9917 23.2862 14.988 23.2276L14.988 23.2269C14.9835 23.1536 14.9794 23.0998 14.9747 23.0591C14.8406 23.037 14.7194 23.0082 14.6192 22.9506C14.4791 22.8702 14.4094 22.753 14.3549 22.6368L14.3545 22.636C14.3124 22.5454 14.2727 22.4485 14.2654 22.3413C14.2577 22.227 14.2883 22.1301 14.3252 22.0416ZM14.3252 22.0416C14.3253 22.0413 14.3254 22.0411 14.3255 22.0408L14.5563 22.137L14.3249 22.0423C14.325 22.0421 14.3251 22.0418 14.3252 22.0416ZM14.7112 9.4025L14.7116 9.40243C15.0546 9.34915 15.5324 9.33218 15.9982 9.34488C16.4632 9.35755 16.9369 9.40034 17.2715 9.47386C21.6893 10.4283 24.3839 14.7344 23.2798 19.0859L23.2797 19.0863C22.7238 21.265 21.2058 23.1171 19.1544 24.1299L19.1537 24.1303C17.2942 25.0406 15.3846 25.175 13.3328 24.5447L13.3325 24.5446C10.4648 23.6597 8.47914 21.3368 8.04019 18.3423C7.75058 16.3982 8.16771 14.3801 9.17763 12.8199L9.17796 12.8194C10.4084 10.9284 12.2618 9.78722 14.7112 9.4025ZM15.0524 23.0711C15.0524 23.0711 15.0524 23.0711 15.0524 23.0711C15.0523 23.071 15.0519 23.071 15.0514 23.0709C15.0521 23.071 15.0524 23.0711 15.0524 23.0711ZM15.0503 23.0706L15.0938 22.8245C14.75 22.7745 14.675 22.7307 14.5813 22.5307L15.0503 23.0706Z" fill="black" stroke="black" stroke-width="0.5"/>
</g>
</g>
</svg>
