<svg width="33" height="32" viewBox="0 0 33 32" fill="none" xmlns="http://www.w3.org/2000/svg">
<g id="Frame" clip-path="url(#clip0_2892_1446)">
<path id="Vector" d="M8.5 26.0013C9.97273 26.0013 11.1667 24.8074 11.1667 23.3346C11.1667 21.8619 9.97273 20.668 8.5 20.668C7.02724 20.668 5.83333 21.8619 5.83333 23.3346C5.83333 24.8074 7.02724 26.0013 8.5 26.0013Z" stroke="black" stroke-width="2.66667" stroke-linejoin="round"/>
<path id="Vector_2" d="M23.8333 26.0013C25.3061 26.0013 26.5 24.8074 26.5 23.3346C26.5 21.8619 25.3061 20.668 23.8333 20.668C22.3606 20.668 21.1667 21.8619 21.1667 23.3346C21.1667 24.8074 22.3606 26.0013 23.8333 26.0013Z" stroke="black" stroke-width="2.66667" stroke-linejoin="round"/>
<path id="Vector_3" d="M5.83333 23.332H1.83333V7.33203H21.1667V23.332H11.1667" stroke="black" stroke-width="2.66667" stroke-linecap="round" stroke-linejoin="round"/>
<path id="Vector_4" d="M21.1667 23.3333V12H26.8809L31.1667 17.6667V23.3333H27.0408" stroke="black" stroke-width="2.66667" stroke-linecap="round" stroke-linejoin="round"/>
</g>
<defs>
<clipPath id="clip0_2892_1446">
<rect width="32" height="32" fill="white" transform="translate(0.5)"/>
</clipPath>
</defs>
</svg>
